<mxfile host="app.diagrams.net" modified="2021-02-24T12:20:19.226Z" agent="5.0 (Windows NT 10.0; Win64; x64) AppleWebKit/537.36 (KHTML, like Gecko) Chrome/88.0.4324.182 Safari/537.36" etag="lkc-NmK7h90m2AJbPD0v" version="14.4.2" type="github" pages="3">
  <diagram id="lc-m84Ufgp3q90dNsxzr" name="Back End Scheme">
    <mxGraphModel dx="1117" dy="679" grid="1" gridSize="10" guides="1" tooltips="1" connect="1" arrows="1" fold="1" page="1" pageScale="1" pageWidth="850" pageHeight="1100" math="0" shadow="0">
      <root>
        <mxCell id="0" />
        <mxCell id="1" parent="0" />
        <mxCell id="CnA9bfAafuG9XrKqbDd2-5" style="edgeStyle=orthogonalEdgeStyle;rounded=0;orthogonalLoop=1;jettySize=auto;html=1;" parent="1" source="CnA9bfAafuG9XrKqbDd2-1" target="CnA9bfAafuG9XrKqbDd2-4" edge="1">
          <mxGeometry relative="1" as="geometry" />
        </mxCell>
        <mxCell id="CnA9bfAafuG9XrKqbDd2-1" value="Scenes" style="rounded=0;whiteSpace=wrap;html=1;fillColor=#fff2cc;strokeColor=#d6b656;" parent="1" vertex="1">
          <mxGeometry x="660" y="340" width="120" height="60" as="geometry" />
        </mxCell>
        <mxCell id="CnA9bfAafuG9XrKqbDd2-6" style="edgeStyle=orthogonalEdgeStyle;rounded=0;orthogonalLoop=1;jettySize=auto;html=1;entryX=1;entryY=0.5;entryDx=0;entryDy=0;" parent="1" source="CnA9bfAafuG9XrKqbDd2-2" target="CnA9bfAafuG9XrKqbDd2-4" edge="1">
          <mxGeometry relative="1" as="geometry" />
        </mxCell>
        <mxCell id="CnA9bfAafuG9XrKqbDd2-2" value="Results" style="rounded=0;whiteSpace=wrap;html=1;fillColor=#fff2cc;strokeColor=#d6b656;" parent="1" vertex="1">
          <mxGeometry x="660" y="430" width="120" height="60" as="geometry" />
        </mxCell>
        <mxCell id="CnA9bfAafuG9XrKqbDd2-13" style="edgeStyle=orthogonalEdgeStyle;rounded=0;orthogonalLoop=1;jettySize=auto;html=1;" parent="1" source="CnA9bfAafuG9XrKqbDd2-4" target="CnA9bfAafuG9XrKqbDd2-15" edge="1">
          <mxGeometry relative="1" as="geometry">
            <mxPoint x="220" y="245" as="targetPoint" />
          </mxGeometry>
        </mxCell>
        <mxCell id="CnA9bfAafuG9XrKqbDd2-4" value="&lt;b style=&quot;font-size: 15px;&quot;&gt;Visit Objects:&lt;/b&gt;&lt;br style=&quot;font-size: 15px;&quot;&gt;&lt;div style=&quot;font-size: 15px;&quot;&gt;&lt;div style=&quot;font-size: 15px;&quot;&gt;&lt;b style=&quot;font-size: 15px;&quot;&gt;&lt;font color=&quot;#0000ff&quot; style=&quot;font-size: 15px;&quot;&gt;Scene level&lt;/font&gt;&lt;/b&gt;{&lt;/div&gt;&lt;div style=&quot;font-size: 15px;&quot;&gt;&amp;nbsp; &amp;nbsp; &amp;nbsp;Scene{&lt;/div&gt;&lt;div style=&quot;font-size: 15px;&quot;&gt;&amp;nbsp; &amp;nbsp; &amp;nbsp; &amp;nbsp; &amp;nbsp; &amp;nbsp; &amp;nbsp;Result{ Action},&lt;/div&gt;&lt;div style=&quot;font-size: 15px;&quot;&gt;&amp;nbsp; &amp;nbsp; &amp;nbsp; &amp;nbsp; &amp;nbsp; &amp;nbsp; &amp;nbsp;Result{}&lt;/div&gt;&lt;div style=&quot;font-size: 15px;&quot;&gt;&amp;nbsp; &amp;nbsp; &amp;nbsp;},&lt;/div&gt;&lt;div style=&quot;font-size: 15px;&quot;&gt;&amp;nbsp; &amp;nbsp; &amp;nbsp;Scene{&lt;/div&gt;&lt;div style=&quot;font-size: 15px;&quot;&gt;&amp;nbsp; &amp;nbsp; &amp;nbsp; &amp;nbsp; &amp;nbsp; &amp;nbsp; &amp;nbsp;Result{ },&lt;/div&gt;&lt;div style=&quot;font-size: 15px;&quot;&gt;&amp;nbsp; &amp;nbsp; &amp;nbsp; &amp;nbsp; &amp;nbsp; &amp;nbsp; &amp;nbsp;Result{Action,Action}&lt;/div&gt;&lt;div style=&quot;font-size: 15px;&quot;&gt;&amp;nbsp; &amp;nbsp; &amp;nbsp;}&lt;/div&gt;&lt;div style=&quot;font-size: 15px;&quot;&gt;}&lt;div style=&quot;font-size: 15px;&quot;&gt;&lt;font color=&quot;#0000ff&quot; style=&quot;font-size: 15px;&quot;&gt;&lt;b style=&quot;font-size: 15px;&quot;&gt;Visit leve&lt;/b&gt;&lt;/font&gt;l{&lt;/div&gt;&lt;div style=&quot;font-size: 15px;&quot;&gt;&amp;nbsp; &amp;nbsp; &amp;nbsp;Result{Action},&lt;/div&gt;&lt;div style=&quot;font-size: 15px;&quot;&gt;&amp;nbsp; &amp;nbsp; &amp;nbsp;Result{},&lt;/div&gt;&lt;div style=&quot;font-size: 15px;&quot;&gt;&amp;nbsp; &amp;nbsp; &amp;nbsp;Result{Action}&lt;/div&gt;&lt;div style=&quot;font-size: 15px;&quot;&gt;}&lt;/div&gt;&lt;/div&gt;&lt;/div&gt;" style="whiteSpace=wrap;html=1;aspect=fixed;align=left;fillColor=#dae8fc;strokeColor=#6c8ebf;fontSize=15;" parent="1" vertex="1">
          <mxGeometry x="310" y="310" width="310" height="310" as="geometry" />
        </mxCell>
        <mxCell id="CnA9bfAafuG9XrKqbDd2-14" style="edgeStyle=orthogonalEdgeStyle;rounded=0;orthogonalLoop=1;jettySize=auto;html=1;entryX=1.013;entryY=0.497;entryDx=0;entryDy=0;entryPerimeter=0;" parent="1" source="CnA9bfAafuG9XrKqbDd2-7" target="CnA9bfAafuG9XrKqbDd2-15" edge="1">
          <mxGeometry relative="1" as="geometry">
            <mxPoint x="220" y="245" as="targetPoint" />
          </mxGeometry>
        </mxCell>
        <mxCell id="CnA9bfAafuG9XrKqbDd2-7" value="Providers" style="rounded=0;whiteSpace=wrap;html=1;fillColor=#fff2cc;strokeColor=#d6b656;" parent="1" vertex="1">
          <mxGeometry x="660" y="220" width="120" height="60" as="geometry" />
        </mxCell>
        <mxCell id="CnA9bfAafuG9XrKqbDd2-10" style="edgeStyle=orthogonalEdgeStyle;rounded=0;orthogonalLoop=1;jettySize=auto;html=1;" parent="1" source="CnA9bfAafuG9XrKqbDd2-8" target="CnA9bfAafuG9XrKqbDd2-7" edge="1">
          <mxGeometry relative="1" as="geometry" />
        </mxCell>
        <mxCell id="CnA9bfAafuG9XrKqbDd2-8" value="Provider details" style="rounded=0;whiteSpace=wrap;html=1;fillColor=#ffe6cc;strokeColor=#d79b00;" parent="1" vertex="1">
          <mxGeometry x="880" y="220" width="120" height="60" as="geometry" />
        </mxCell>
        <mxCell id="CnA9bfAafuG9XrKqbDd2-15" value="&lt;span&gt;Visit / rout / client / pirt / ents&lt;br&gt;+&lt;br&gt;Provider&lt;br&gt;+&lt;br&gt;&lt;/span&gt;&lt;span style=&quot;text-align: left&quot;&gt;Visit Objects&lt;/span&gt;&lt;span&gt;&lt;br&gt;&lt;br&gt;&lt;/span&gt;" style="shape=cube;whiteSpace=wrap;html=1;boundedLbl=1;backgroundOutline=1;darkOpacity=0.05;darkOpacity2=0.1;fillColor=#d5e8d4;strokeColor=#82b366;" parent="1" vertex="1">
          <mxGeometry x="50" y="200" width="160" height="160" as="geometry" />
        </mxCell>
        <mxCell id="fL3osXDEHGq9UXkC9sC_-2" style="edgeStyle=orthogonalEdgeStyle;rounded=0;orthogonalLoop=1;jettySize=auto;html=1;entryX=1;entryY=0.5;entryDx=0;entryDy=0;" edge="1" parent="1" source="fL3osXDEHGq9UXkC9sC_-1" target="CnA9bfAafuG9XrKqbDd2-2">
          <mxGeometry relative="1" as="geometry" />
        </mxCell>
        <mxCell id="fL3osXDEHGq9UXkC9sC_-1" value="Result details" style="rounded=0;whiteSpace=wrap;html=1;fillColor=#ffe6cc;strokeColor=#d79b00;" vertex="1" parent="1">
          <mxGeometry x="880" y="430" width="120" height="60" as="geometry" />
        </mxCell>
        <mxCell id="fL3osXDEHGq9UXkC9sC_-6" style="edgeStyle=orthogonalEdgeStyle;rounded=0;orthogonalLoop=1;jettySize=auto;html=1;entryX=1;entryY=0.5;entryDx=0;entryDy=0;" edge="1" parent="1" source="fL3osXDEHGq9UXkC9sC_-3" target="CnA9bfAafuG9XrKqbDd2-4">
          <mxGeometry relative="1" as="geometry" />
        </mxCell>
        <mxCell id="fL3osXDEHGq9UXkC9sC_-3" value="Action" style="rounded=0;whiteSpace=wrap;html=1;fillColor=#fff2cc;strokeColor=#d6b656;" vertex="1" parent="1">
          <mxGeometry x="660" y="540" width="120" height="60" as="geometry" />
        </mxCell>
        <mxCell id="fL3osXDEHGq9UXkC9sC_-4" style="edgeStyle=orthogonalEdgeStyle;rounded=0;orthogonalLoop=1;jettySize=auto;html=1;entryX=1;entryY=0.5;entryDx=0;entryDy=0;" edge="1" parent="1" source="fL3osXDEHGq9UXkC9sC_-5">
          <mxGeometry relative="1" as="geometry">
            <mxPoint x="780" y="570" as="targetPoint" />
          </mxGeometry>
        </mxCell>
        <mxCell id="fL3osXDEHGq9UXkC9sC_-5" value="Action details" style="rounded=0;whiteSpace=wrap;html=1;fillColor=#ffe6cc;strokeColor=#d79b00;" vertex="1" parent="1">
          <mxGeometry x="880" y="540" width="120" height="60" as="geometry" />
        </mxCell>
      </root>
    </mxGraphModel>
  </diagram>
  <diagram id="URYaptouhH0eVEyMTVb2" name="Front End Scheme">
    <mxGraphModel dx="1117" dy="679" grid="1" gridSize="10" guides="1" tooltips="1" connect="1" arrows="1" fold="1" page="1" pageScale="1" pageWidth="850" pageHeight="1100" math="0" shadow="0">
      <root>
        <mxCell id="v5fpOrPudrE2cuKiileh-0" />
        <mxCell id="v5fpOrPudrE2cuKiileh-1" parent="v5fpOrPudrE2cuKiileh-0" />
        <mxCell id="arx0qp7QFocIj4nr2kAC-5" value="Visit" style="swimlane;childLayout=stackLayout;horizontal=1;startSize=30;horizontalStack=0;rounded=1;fontSize=14;fontStyle=0;strokeWidth=2;resizeParent=0;resizeLast=1;shadow=0;dashed=0;align=center;" vertex="1" parent="v5fpOrPudrE2cuKiileh-1">
          <mxGeometry x="50" y="200" width="160" height="120" as="geometry" />
        </mxCell>
        <mxCell id="arx0qp7QFocIj4nr2kAC-6" value="+Visit ID&#xa;+Route ID&#xa;+Client ID" style="align=left;strokeColor=none;fillColor=none;spacingLeft=4;fontSize=12;verticalAlign=top;resizable=0;rotatable=0;part=1;" vertex="1" parent="arx0qp7QFocIj4nr2kAC-5">
          <mxGeometry y="30" width="160" height="90" as="geometry" />
        </mxCell>
        <mxCell id="arx0qp7QFocIj4nr2kAC-7" value="Scene" style="swimlane;childLayout=stackLayout;horizontal=1;startSize=30;horizontalStack=0;rounded=1;fontSize=14;fontStyle=0;strokeWidth=2;resizeParent=0;resizeLast=1;shadow=0;dashed=0;align=center;" vertex="1" parent="v5fpOrPudrE2cuKiileh-1">
          <mxGeometry x="345" y="50" width="160" height="120" as="geometry" />
        </mxCell>
        <mxCell id="arx0qp7QFocIj4nr2kAC-8" value="+Scene ID" style="align=left;strokeColor=none;fillColor=none;spacingLeft=4;fontSize=12;verticalAlign=top;resizable=0;rotatable=0;part=1;" vertex="1" parent="arx0qp7QFocIj4nr2kAC-7">
          <mxGeometry y="30" width="160" height="90" as="geometry" />
        </mxCell>
        <mxCell id="arx0qp7QFocIj4nr2kAC-11" value="Results To Display" style="swimlane;childLayout=stackLayout;horizontal=1;startSize=30;horizontalStack=0;rounded=1;fontSize=14;fontStyle=0;strokeWidth=2;resizeParent=0;resizeLast=1;shadow=0;dashed=0;align=center;" vertex="1" parent="v5fpOrPudrE2cuKiileh-1">
          <mxGeometry x="650" y="50" width="160" height="120" as="geometry" />
        </mxCell>
        <mxCell id="arx0qp7QFocIj4nr2kAC-12" value="+Result ID" style="align=left;strokeColor=none;fillColor=none;spacingLeft=4;fontSize=12;verticalAlign=top;resizable=0;rotatable=0;part=1;" vertex="1" parent="arx0qp7QFocIj4nr2kAC-11">
          <mxGeometry y="30" width="160" height="90" as="geometry" />
        </mxCell>
        <mxCell id="arx0qp7QFocIj4nr2kAC-13" value="Results to Action" style="swimlane;childLayout=stackLayout;horizontal=1;startSize=30;horizontalStack=0;rounded=1;fontSize=14;fontStyle=0;strokeWidth=2;resizeParent=0;resizeLast=1;shadow=0;dashed=0;align=center;" vertex="1" parent="v5fpOrPudrE2cuKiileh-1">
          <mxGeometry x="650" y="220" width="160" height="120" as="geometry" />
        </mxCell>
        <mxCell id="arx0qp7QFocIj4nr2kAC-14" value="+Result ID" style="align=left;strokeColor=none;fillColor=none;spacingLeft=4;fontSize=12;verticalAlign=top;resizable=0;rotatable=0;part=1;" vertex="1" parent="arx0qp7QFocIj4nr2kAC-13">
          <mxGeometry y="30" width="160" height="90" as="geometry" />
        </mxCell>
        <mxCell id="arx0qp7QFocIj4nr2kAC-15" value="Actions" style="swimlane;childLayout=stackLayout;horizontal=1;startSize=30;horizontalStack=0;rounded=1;fontSize=14;fontStyle=0;strokeWidth=2;resizeParent=0;resizeLast=1;shadow=0;dashed=0;align=center;" vertex="1" parent="v5fpOrPudrE2cuKiileh-1">
          <mxGeometry x="910" y="220" width="160" height="120" as="geometry" />
        </mxCell>
        <mxCell id="arx0qp7QFocIj4nr2kAC-16" value="+Action ID" style="align=left;strokeColor=none;fillColor=none;spacingLeft=4;fontSize=12;verticalAlign=top;resizable=0;rotatable=0;part=1;" vertex="1" parent="arx0qp7QFocIj4nr2kAC-15">
          <mxGeometry y="30" width="160" height="90" as="geometry" />
        </mxCell>
        <mxCell id="arx0qp7QFocIj4nr2kAC-17" style="edgeStyle=orthogonalEdgeStyle;rounded=0;orthogonalLoop=1;jettySize=auto;html=1;fontSize=15;" edge="1" parent="v5fpOrPudrE2cuKiileh-1" source="arx0qp7QFocIj4nr2kAC-8" target="arx0qp7QFocIj4nr2kAC-12">
          <mxGeometry relative="1" as="geometry" />
        </mxCell>
        <mxCell id="arx0qp7QFocIj4nr2kAC-18" style="edgeStyle=orthogonalEdgeStyle;rounded=0;orthogonalLoop=1;jettySize=auto;html=1;entryX=0.005;entryY=0.387;entryDx=0;entryDy=0;entryPerimeter=0;fontSize=15;strokeColor=#00CC00;" edge="1" parent="v5fpOrPudrE2cuKiileh-1" source="arx0qp7QFocIj4nr2kAC-6" target="arx0qp7QFocIj4nr2kAC-8">
          <mxGeometry relative="1" as="geometry" />
        </mxCell>
        <mxCell id="arx0qp7QFocIj4nr2kAC-19" style="edgeStyle=orthogonalEdgeStyle;rounded=0;orthogonalLoop=1;jettySize=auto;html=1;entryX=0;entryY=0.5;entryDx=0;entryDy=0;fontSize=15;strokeColor=#00CC00;" edge="1" parent="v5fpOrPudrE2cuKiileh-1" source="arx0qp7QFocIj4nr2kAC-8" target="arx0qp7QFocIj4nr2kAC-14">
          <mxGeometry relative="1" as="geometry" />
        </mxCell>
        <mxCell id="arx0qp7QFocIj4nr2kAC-20" style="edgeStyle=orthogonalEdgeStyle;rounded=0;orthogonalLoop=1;jettySize=auto;html=1;entryX=0;entryY=0.5;entryDx=0;entryDy=0;fontSize=15;strokeColor=#00CC00;" edge="1" parent="v5fpOrPudrE2cuKiileh-1" source="arx0qp7QFocIj4nr2kAC-14" target="arx0qp7QFocIj4nr2kAC-16">
          <mxGeometry relative="1" as="geometry" />
        </mxCell>
        <mxCell id="kT3x6SwEuBEVxymnHqKC-0" value="Visit Results To Display" style="swimlane;childLayout=stackLayout;horizontal=1;startSize=30;horizontalStack=0;rounded=1;fontSize=14;fontStyle=0;strokeWidth=2;resizeParent=0;resizeLast=1;shadow=0;dashed=0;align=center;" vertex="1" parent="v5fpOrPudrE2cuKiileh-1">
          <mxGeometry x="360" y="370" width="160" height="120" as="geometry" />
        </mxCell>
        <mxCell id="kT3x6SwEuBEVxymnHqKC-1" value="+Result ID" style="align=left;strokeColor=none;fillColor=none;spacingLeft=4;fontSize=12;verticalAlign=top;resizable=0;rotatable=0;part=1;" vertex="1" parent="kT3x6SwEuBEVxymnHqKC-0">
          <mxGeometry y="30" width="160" height="90" as="geometry" />
        </mxCell>
        <mxCell id="kT3x6SwEuBEVxymnHqKC-2" value="Visit Results to Action" style="swimlane;childLayout=stackLayout;horizontal=1;startSize=30;horizontalStack=0;rounded=1;fontSize=14;fontStyle=0;strokeWidth=2;resizeParent=0;resizeLast=1;shadow=0;dashed=0;align=center;" vertex="1" parent="v5fpOrPudrE2cuKiileh-1">
          <mxGeometry x="360" y="540" width="160" height="120" as="geometry" />
        </mxCell>
        <mxCell id="kT3x6SwEuBEVxymnHqKC-3" value="+Result ID" style="align=left;strokeColor=none;fillColor=none;spacingLeft=4;fontSize=12;verticalAlign=top;resizable=0;rotatable=0;part=1;" vertex="1" parent="kT3x6SwEuBEVxymnHqKC-2">
          <mxGeometry y="30" width="160" height="90" as="geometry" />
        </mxCell>
        <mxCell id="kT3x6SwEuBEVxymnHqKC-4" value="Actions" style="swimlane;childLayout=stackLayout;horizontal=1;startSize=30;horizontalStack=0;rounded=1;fontSize=14;fontStyle=0;strokeWidth=2;resizeParent=0;resizeLast=1;shadow=0;dashed=0;align=center;" vertex="1" parent="v5fpOrPudrE2cuKiileh-1">
          <mxGeometry x="620" y="540" width="160" height="120" as="geometry" />
        </mxCell>
        <mxCell id="kT3x6SwEuBEVxymnHqKC-5" value="+Action ID" style="align=left;strokeColor=none;fillColor=none;spacingLeft=4;fontSize=12;verticalAlign=top;resizable=0;rotatable=0;part=1;" vertex="1" parent="kT3x6SwEuBEVxymnHqKC-4">
          <mxGeometry y="30" width="160" height="90" as="geometry" />
        </mxCell>
        <mxCell id="kT3x6SwEuBEVxymnHqKC-6" style="edgeStyle=orthogonalEdgeStyle;rounded=0;orthogonalLoop=1;jettySize=auto;html=1;entryX=0;entryY=0.5;entryDx=0;entryDy=0;fontSize=15;strokeColor=#0000CC;" edge="1" parent="v5fpOrPudrE2cuKiileh-1" source="kT3x6SwEuBEVxymnHqKC-3" target="kT3x6SwEuBEVxymnHqKC-5">
          <mxGeometry relative="1" as="geometry" />
        </mxCell>
        <mxCell id="kT3x6SwEuBEVxymnHqKC-9" style="edgeStyle=orthogonalEdgeStyle;rounded=0;orthogonalLoop=1;jettySize=auto;html=1;entryX=0;entryY=0.5;entryDx=0;entryDy=0;fontSize=15;strokeColor=#0000CC;" edge="1" parent="v5fpOrPudrE2cuKiileh-1" source="arx0qp7QFocIj4nr2kAC-6" target="kT3x6SwEuBEVxymnHqKC-1">
          <mxGeometry relative="1" as="geometry" />
        </mxCell>
        <mxCell id="kT3x6SwEuBEVxymnHqKC-10" style="edgeStyle=orthogonalEdgeStyle;rounded=0;orthogonalLoop=1;jettySize=auto;html=1;entryX=0;entryY=0.25;entryDx=0;entryDy=0;fontSize=15;strokeColor=#0000CC;" edge="1" parent="v5fpOrPudrE2cuKiileh-1" source="arx0qp7QFocIj4nr2kAC-6" target="kT3x6SwEuBEVxymnHqKC-3">
          <mxGeometry relative="1" as="geometry" />
        </mxCell>
        <mxCell id="haBEYxdRxyyxVzEBQSb5-1" style="edgeStyle=orthogonalEdgeStyle;rounded=0;orthogonalLoop=1;jettySize=auto;html=1;fontSize=15;" edge="1" parent="v5fpOrPudrE2cuKiileh-1">
          <mxGeometry relative="1" as="geometry">
            <mxPoint x="505.0000000000002" y="125" as="sourcePoint" />
            <mxPoint x="650" y="125" as="targetPoint" />
          </mxGeometry>
        </mxCell>
        <mxCell id="haBEYxdRxyyxVzEBQSb5-3" style="edgeStyle=orthogonalEdgeStyle;rounded=0;orthogonalLoop=1;jettySize=auto;html=1;fontSize=15;strokeColor=#00CC00;" edge="1" parent="v5fpOrPudrE2cuKiileh-1">
          <mxGeometry relative="1" as="geometry">
            <mxPoint x="505.0000000000002" y="125" as="sourcePoint" />
            <mxPoint x="650" y="125" as="targetPoint" />
          </mxGeometry>
        </mxCell>
      </root>
    </mxGraphModel>
  </diagram>
  <diagram id="Bf9KkXgQPLuXtY3lthqC" name="Front End UI Elems">
    <mxGraphModel dx="1117" dy="679" grid="1" gridSize="10" guides="1" tooltips="1" connect="1" arrows="1" fold="1" page="1" pageScale="1" pageWidth="850" pageHeight="1100" math="0" shadow="0">
      <root>
        <mxCell id="rQ7pP8dw31VUTpD60q7r-0" />
        <mxCell id="rQ7pP8dw31VUTpD60q7r-1" parent="rQ7pP8dw31VUTpD60q7r-0" />
        <mxCell id="Ahg4akSCFClWvg9TeHIE-6" value="&amp;nbsp;Visit level" style="rounded=1;whiteSpace=wrap;html=1;fontSize=15;dashed=1;align=left;verticalAlign=top;" vertex="1" parent="rQ7pP8dw31VUTpD60q7r-1">
          <mxGeometry x="70" y="400" width="730" height="180" as="geometry" />
        </mxCell>
        <mxCell id="Ahg4akSCFClWvg9TeHIE-5" value="&amp;nbsp;Scene level" style="rounded=1;whiteSpace=wrap;html=1;fontSize=15;dashed=1;align=left;verticalAlign=top;" vertex="1" parent="rQ7pP8dw31VUTpD60q7r-1">
          <mxGeometry x="70" y="100" width="730" height="180" as="geometry" />
        </mxCell>
        <mxCell id="4dXByk4_jcM1iA1UxI9x-0" value="IR Scene 1" style="rounded=1;whiteSpace=wrap;html=1;fontSize=15;" vertex="1" parent="rQ7pP8dw31VUTpD60q7r-1">
          <mxGeometry x="180" y="160" width="120" height="60" as="geometry" />
        </mxCell>
        <mxCell id="4dXByk4_jcM1iA1UxI9x-1" value="IR Scene 2" style="rounded=1;whiteSpace=wrap;html=1;fontSize=15;" vertex="1" parent="rQ7pP8dw31VUTpD60q7r-1">
          <mxGeometry x="420" y="160" width="120" height="60" as="geometry" />
        </mxCell>
        <mxCell id="4dXByk4_jcM1iA1UxI9x-2" value="IR Scene .." style="rounded=1;whiteSpace=wrap;html=1;fontSize=15;" vertex="1" parent="rQ7pP8dw31VUTpD60q7r-1">
          <mxGeometry x="640" y="160" width="120" height="60" as="geometry" />
        </mxCell>
        <mxCell id="Ahg4akSCFClWvg9TeHIE-0" value="IR Current Visit" style="rounded=1;whiteSpace=wrap;html=1;fontSize=15;" vertex="1" parent="rQ7pP8dw31VUTpD60q7r-1">
          <mxGeometry x="200" y="460" width="120" height="60" as="geometry" />
        </mxCell>
        <mxCell id="Ahg4akSCFClWvg9TeHIE-1" value="IR History Visits" style="rounded=1;whiteSpace=wrap;html=1;fontSize=15;" vertex="1" parent="rQ7pP8dw31VUTpD60q7r-1">
          <mxGeometry x="440" y="460" width="120" height="60" as="geometry" />
        </mxCell>
      </root>
    </mxGraphModel>
  </diagram>
</mxfile>
